<?xml version="1.0" standalone="no"?>
<!DOCTYPE svg PUBLIC "-//W3C//DTD SVG 20010904//EN"
 "http://www.w3.org/TR/2001/REC-SVG-20010904/DTD/svg10.dtd">
<svg version="1.0" xmlns="http://www.w3.org/2000/svg"
 width="440.000000pt" height="350.000000pt" viewBox="0 0 440.000000 350.000000"
 preserveAspectRatio="xMidYMid meet">

<g transform="translate(0.000000,350.000000) scale(0.100000,-0.100000)"
fill="#000000" stroke="none">
<path d="M1096 3065 c29 -33 77 -84 107 -113 l56 -52 -77 -39 c-156 -78 -313
-116 -448 -109 l-87 5 129 -65 129 -64 213 -217 c168 -171 206 -205 183 -165
-76 127 -107 228 -89 291 8 29 24 44 100 93 103 67 157 83 264 78 l69 -3 7
-56 c11 -90 46 -214 86 -307 119 -274 334 -446 622 -496 l75 -13 -95 -7 c-52
-4 -179 -13 -282 -20 l-188 -12 -97 61 c-125 78 -182 110 -163 93 9 -7 59 -48
113 -92 58 -46 94 -83 90 -90 -3 -6 -15 -24 -26 -39 -10 -16 -17 -30 -15 -32
2 -2 32 4 66 15 56 18 212 43 220 36 1 -2 -3 -15 -9 -30 -17 -37 -6 -41 38
-12 71 47 247 83 645 132 161 19 176 23 93 19 l-100 -5 55 22 c213 82 341 266
373 534 l11 90 60 -8 c60 -9 62 -10 148 -101 l87 -92 -24 64 c-14 36 -24 65
-22 67 1 1 54 -29 117 -67 107 -63 237 -125 246 -116 3 2 -52 50 -121 106 -69
56 -125 106 -125 112 0 7 12 8 33 4 64 -14 19 4 -148 59 -472 155 -961 261
-1468 320 l-128 15 -126 121 c-69 66 -128 119 -130 116 -2 -2 11 -26 30 -53
34 -47 91 -153 85 -157 -2 -1 -64 1 -138 5 -107 4 -146 10 -190 28 -58 24
-185 106 -260 169 l-45 37 51 -60z m1037 -430 c67 -8 138 -18 158 -21 l36 -5
-5 -80 c-8 -134 27 -256 91 -319 25 -24 39 -30 74 -30 88 0 151 110 161 278 4
83 7 92 25 92 25 0 274 -56 310 -69 25 -10 27 -14 21 -53 -32 -232 -122 -359
-295 -419 -53 -18 -85 -22 -184 -22 -138 1 -240 23 -345 75 -85 42 -213 168
-264 260 -42 75 -90 208 -104 288 l-10 53 105 -7 c57 -4 159 -13 226 -21z
m364 -52 c130 -21 132 -24 115 -148 -13 -97 -37 -158 -77 -197 -34 -34 -55
-35 -93 -3 -57 48 -94 185 -84 313 5 61 -5 58 139 35z"/>
<path d="M2978 1863 c6 -2 18 -2 25 0 6 3 1 5 -13 5 -14 0 -19 -2 -12 -5z"/>
<path d="M192 1137 l-142 -143 2 -329 3 -330 93 -3 92 -3 0 146 0 145 235 0
234 0 3 -142 3 -143 90 0 90 0 3 473 2 472 -283 0 -282 0 -143 -143z m518
-187 l0 -140 -235 0 -235 0 0 41 c0 37 7 48 93 140 l92 99 143 0 142 0 0 -140z"/>
<path d="M1035 1268 c-3 -7 -4 -220 -3 -473 l3 -460 92 -3 93 -3 2 316 3 315
235 -313 235 -312 93 -3 92 -3 0 476 0 475 -95 0 -95 0 -2 -310 -3 -311 -230
308 -231 308 -92 3 c-68 2 -94 -1 -97 -10z"/>
<path d="M2015 1268 c-3 -7 -4 -220 -3 -473 l3 -460 93 -3 92 -3 0 476 0 475
-90 0 c-63 0 -92 -4 -95 -12z"/>
<path d="M2340 805 l0 -476 93 3 92 3 5 313 5 313 120 -175 120 -175 82 -1 81
0 119 175 118 174 5 -312 5 -312 93 -3 92 -3 0 476 0 475 -89 0 -90 0 -167
-230 -168 -229 -31 42 c-16 24 -90 127 -164 230 l-135 187 -93 0 -93 0 0 -475z"/>
<path d="M3510 805 l0 -475 398 2 397 3 3 92 3 93 -306 0 -305 0 0 95 0 95
280 0 280 0 0 95 0 95 -280 0 -280 0 0 95 0 95 305 0 305 0 0 95 0 95 -400 0
-400 0 0 -475z"/>
</g>
</svg>
