<?xml version="1.0" standalone="no"?>
<!DOCTYPE svg PUBLIC "-//W3C//DTD SVG 20010904//EN"
 "http://www.w3.org/TR/2001/REC-SVG-20010904/DTD/svg10.dtd">
<svg version="1.0" xmlns="http://www.w3.org/2000/svg"
 width="512.000000pt" height="512.000000pt" viewBox="0 0 512.000000 512.000000"
 preserveAspectRatio="xMidYMid meet">

<g transform="translate(0.000000,512.000000) scale(0.100000,-0.100000)"
fill="#000000" stroke="none">
<path d="M145 5113 c-35 -10 -86 -50 -113 -90 -37 -53 -38 -151 -3 -203 13
-19 226 -238 473 -486 l449 -451 -113 -96 c-147 -123 -388 -371 -509 -523
-260 -325 -323 -461 -323 -704 0 -192 38 -307 162 -490 234 -344 597 -708 952
-956 605 -423 1243 -575 1880 -448 230 46 541 164 755 288 l80 46 475 -474
c261 -260 491 -484 510 -497 52 -36 150 -34 205 4 66 44 90 89 90 166 0 53 -5
73 -24 101 -34 49 -4727 4745 -4779 4781 -43 31 -120 45 -167 32z m1437 -1969
c-238 -402 -209 -903 74 -1274 344 -453 977 -581 1469 -299 l88 51 166 -166
165 -165 -134 -65 c-433 -207 -844 -255 -1275 -150 -394 97 -771 314 -1158
668 -205 188 -461 497 -535 645 -35 71 -37 80 -37 170 0 83 4 104 27 153 86
184 432 581 698 801 l105 86 194 -193 193 -193 -40 -69z m602 -586 c1 -84 4
-100 34 -160 41 -83 107 -149 191 -191 59 -29 75 -32 159 -33 l94 -1 129 -129
130 -129 -58 -27 c-101 -47 -176 -63 -308 -63 -97 0 -134 5 -195 24 -253 78
-433 258 -511 511 -19 61 -24 98 -24 195 0 130 15 203 62 308 l26 59 135 -135
135 -135 1 -94z"/>
<path d="M2313 4485 c-142 -18 -337 -61 -383 -85 -120 -62 -146 -215 -52 -313
64 -67 111 -73 277 -37 297 66 557 64 836 -6 362 -90 710 -280 1054 -577 252
-216 554 -569 639 -747 28 -59 31 -74 31 -160 0 -82 -4 -103 -28 -154 -44 -95
-189 -289 -338 -453 -86 -96 -109 -137 -109 -200 1 -134 122 -228 249 -193 53
14 103 59 234 213 122 143 219 273 280 376 140 235 152 526 31 765 -102 203
-415 581 -660 797 -503 446 -966 683 -1492 764 -144 22 -433 27 -569 10z"/>
<path d="M2717 3666 c-144 -39 -193 -217 -89 -325 29 -29 56 -44 122 -66 269
-87 445 -262 520 -515 30 -100 53 -135 108 -167 55 -32 137 -37 188 -10 75 39
122 130 108 211 -31 186 -156 418 -309 571 -124 124 -307 235 -465 283 -96 29
-130 32 -183 18z"/>
</g>
</svg>
