<svg xmlns="http://www.w3.org/2000/svg"  viewBox="0 0 48 48" width="48px" height="48px"><path d="M 23.761719 0.52734375 C 23.235844 0.52734375 22.710297 0.71589063 22.341797 1.0878906 L 20.087891 3.3457031 C 18.671891 2.3367031 16.943266 1.5775937 15.947266 1.1835938 C 15.321266 0.93459375 14.617312 1.0155312 14.070312 1.3945312 C 13.508313 1.7805312 13.183125 2.4167031 13.203125 3.0957031 L 13.257812 5.0371094 C 11.822812 4.6851094 10.224906 4.4917187 9.0039062 4.3867188 C 8.2559063 4.3257187 7.5377656 4.6745938 7.1347656 5.3085938 C 6.7277656 5.9485938 6.7174219 6.7493438 7.1074219 7.4023438 L 8.1640625 9.1699219 C 6.6450625 9.9409219 5.1756563 10.880594 4.3476562 11.433594 C 3.7386563 11.839594 3.4008438 12.544437 3.4648438 13.273438 C 3.5288438 13.997438 3.9842969 14.629781 4.6542969 14.925781 L 6.3339844 15.662109 C 5.4269844 16.608109 4.77175 17.616625 4.34375 18.390625 C 3.98975 19.026625 4.0123906 19.807828 4.4003906 20.423828 C 4.7853906 21.033828 5.4644063 21.408469 6.1914062 21.355469 L 6.8457031 21.326172 C 5.8377031 23.510172 5.3316406 25.504422 5.3066406 25.607422 C 5.1056406 26.410422 5.5954375 27.224781 6.3984375 27.425781 C 7.0244375 27.586781 7.656 27.314641 8 26.806641 L 8 29.630859 C 8 30.111859 8.1036875 30.587297 8.3046875 31.029297 C 8.7436875 31.994297 10.0075 34.245656 10.5625 35.222656 C 10.5965 35.281656 10.639547 35.331859 10.685547 35.380859 C 10.780547 35.573859 10.881281 35.771656 10.988281 35.972656 L 10.988281 41.482422 C 10.988281 41.686422 11.127172 41.865109 11.326172 41.912109 C 11.525172 41.959109 11.731266 41.862687 11.822266 41.679688 L 11.988281 41.347656 L 12.708984 44.953125 C 12.749984 45.157125 12.916047 45.313797 13.123047 45.341797 C 13.329047 45.369797 13.530047 45.262172 13.623047 45.076172 L 13.988281 44.347656 L 14.492188 45.859375 C 14.563187 46.073375 14.763281 46.216797 14.988281 46.216797 C 15.213281 46.216797 15.413375 46.073375 15.484375 45.859375 L 16.302734 43.400391 C 18.083734 45.329391 20.137734 46.998047 21.927734 46.998047 L 25.927734 46.998047 C 27.512734 46.998047 29.334422 45.665484 30.982422 44.021484 L 31.519531 45.636719 C 31.588531 45.844719 31.782953 45.984375 32.001953 45.984375 C 32.220953 45.984375 32.415375 45.843719 32.484375 45.636719 L 33.001953 44.082031 L 33.339844 44.757812 C 33.436844 44.951813 33.646328 45.062203 33.861328 45.033203 C 34.076328 45.004203 34.249969 44.843859 34.292969 44.630859 L 35.003906 41.082031 L 35.039062 41.15625 C 35.144062 41.36725 35.382328 41.477828 35.611328 41.423828 C 35.840328 41.369828 36.001953 41.165687 36.001953 40.929688 L 36.001953 37.628906 C 36.616953 36.604906 37.068625 35.69075 37.390625 34.84375 C 37.490625 34.77275 37.579625 34.686172 37.640625 34.576172 C 38.152625 33.660172 39.322516 31.552437 39.728516 30.648438 C 39.914516 30.234437 40.009766 29.787891 40.009766 29.337891 L 40.009766 27.244141 C 40.236766 27.378141 40.487766 27.46875 40.759766 27.46875 C 40.880766 27.46875 41.003 27.452875 41.125 27.421875 C 41.928 27.220875 42.417797 26.408469 42.216797 25.605469 C 42.187797 25.488469 41.580281 23.089922 40.363281 20.669922 L 41.976562 20.265625 C 42.643563 20.097625 43.171672 19.608937 43.388672 18.960938 C 43.610672 18.305937 43.478109 17.593547 43.037109 17.060547 C 42.574109 16.498547 41.875875 15.773609 40.921875 15.099609 L 42.357422 14.0625 C 42.894422 13.6715 43.202641 13.042766 43.181641 12.384766 C 43.161641 11.725766 42.818859 11.118812 42.255859 10.757812 C 41.271859 10.132812 40.088281 9.6747344 38.863281 9.4277344 L 40.431641 6.8828125 C 40.839641 6.2198125 40.823578 5.3715156 40.392578 4.7285156 C 39.967578 4.0905156 39.202453 3.7434219 38.439453 3.8574219 C 37.141453 4.0434219 35.396734 4.3814219 33.802734 4.9824219 L 33.402344 2.9726562 C 33.284344 2.3826563 32.910047 1.8827031 32.373047 1.5957031 C 31.844047 1.3177031 31.223875 1.286625 30.671875 1.515625 C 29.936875 1.818625 28.642875 2.419125 27.421875 3.328125 L 25.1875 1.0917969 C 24.8145 0.71479687 24.287594 0.52734375 23.761719 0.52734375 z M 19.992188 16.351562 L 21.294922 18.865234 C 21.562922 19.381234 22.110453 19.714734 22.689453 19.677734 C 23.270453 19.654734 23.792578 19.293766 24.017578 18.759766 L 25.025391 16.376953 C 25.563391 17.298953 26.150031 18.209422 26.832031 19.232422 C 27.151031 19.710422 27.722922 19.964766 28.294922 19.884766 C 28.865922 19.802766 29.344625 19.392797 29.515625 18.841797 L 30.033203 17.167969 L 30.847656 19.257812 C 31.072656 19.835812 31.618234 20.211844 32.240234 20.214844 L 32.246094 20.214844 C 32.866094 20.214844 33.413625 19.842578 33.640625 19.267578 L 33.925781 18.554688 C 34.641781 20.815687 35.056547 23.437547 35.060547 25.810547 L 35.050781 25.810547 L 35.152344 30.236328 C 35.190344 31.853328 35.078453 33.426063 33.314453 36.289062 C 31.907453 38.577062 27.545734 43.998047 25.927734 43.998047 L 21.927734 43.998047 C 21.683734 43.998047 21.364953 43.857047 21.001953 43.623047 C 20.997953 43.062047 20.995141 42.516281 20.994141 41.988281 L 26.998047 41.988281 C 27.544047 41.988281 27.986328 41.545 27.986328 41 C 27.986328 40.455 27.543047 40.011719 26.998047 40.011719 L 20.957031 40.011719 C 20.411031 40.011719 19.96875 40.455 19.96875 41 C 19.96875 41.075 19.995719 41.142891 20.011719 41.212891 C 20.011719 41.224891 20.005859 41.234094 20.005859 41.246094 L 20.005859 41.257812 C 20.015859 41.738813 19.951516 42.227031 19.853516 42.707031 C 18.723516 41.667031 17.402141 40.132797 16.244141 38.591797 C 16.667141 38.696797 17.131156 38.763672 17.660156 38.763672 C 21.660156 38.763672 22.660156 33.763672 22.660156 33.763672 C 22.660156 33.763672 20.910156 36.763672 17.160156 36.763672 C 16.022156 36.763672 15.157906 36.4675 14.503906 36.0625 C 14.496906 36.0505 14.488469 36.038344 14.480469 36.027344 C 13.136469 33.862344 12.509766 32.316156 12.509766 31.160156 C 12.509766 28.671156 12.495234 26.825234 12.490234 26.240234 C 13.114234 23.011234 14.00075 19.991812 14.96875 17.757812 C 15.28975 18.309812 15.653156 18.946875 16.035156 19.671875 C 16.291156 20.157875 16.794328 20.455547 17.361328 20.435547 C 17.910328 20.413547 18.404141 20.072406 18.619141 19.566406 L 19.992188 16.351562 z M 14.412109 24.267578 C 14.339734 24.270828 14.268578 24.292531 14.205078 24.332031 C 14.078078 24.410031 14 24.549219 14 24.699219 C 14 24.888219 14.090141 25.065781 14.244141 25.175781 L 16.845703 27.033203 C 16.579703 27.012203 16.3 27 16 27 L 15 27 C 14.448 27 14 27.448 14 28 L 14 28.125 C 14 28.608 14.392 29 14.875 29 C 15.311 29 15.707937 29.008484 16.085938 29.021484 C 16.034937 29.172484 16 29.332 16 29.5 C 16 30.328 16.672 31 17.5 31 C 18.328 31 19 30.328 19 29.5 C 19 29.429 18.988516 29.361969 18.978516 29.292969 C 19.987516 29.472969 20.52325 29.69675 20.78125 29.84375 L 21 30 L 21.554688 28.892578 C 21.800688 28.399578 21.600422 27.800687 21.107422 27.554688 L 14.625 24.3125 C 14.558 24.279 14.484484 24.264328 14.412109 24.267578 z M 33.552734 24.291016 C 33.474109 24.287391 33.394766 24.303844 33.322266 24.339844 L 26.892578 27.552734 C 26.399578 27.799734 26.199312 28.399578 26.445312 28.892578 L 27 30 L 27.21875 29.84375 C 27.49275 29.68775 28.078844 29.444766 29.214844 29.259766 C 29.475844 29.700766 29.95 30 30.5 30 C 31.144 30 31.688391 29.591484 31.900391 29.021484 C 32.282391 29.008484 32.683 29 33.125 29 C 33.608 29 34 28.608 34 28.125 L 34 28 C 34 27.448 33.552 27 33 27 L 32 27 C 31.7 27 31.419297 27.01125 31.154297 27.03125 L 33.804688 25.140625 C 33.927687 25.052625 34 24.910766 34 24.759766 C 34 24.597766 33.915344 24.445375 33.777344 24.359375 C 33.708344 24.316875 33.631359 24.294641 33.552734 24.291016 z M 13.09375 30.763672 C 13.09375 30.763672 13.09375 34.763672 16.59375 34.763672 C 19.59375 34.763672 22.09375 31.763672 22.09375 31.763672 C 22.09375 31.763672 19.59375 32.763672 16.59375 32.763672 C 13.59375 32.763672 13.09375 30.763672 13.09375 30.763672 z M 22 37 C 22 37 23 39 24 39 C 25 39 26 37 26 37 L 22 37 z"/></svg>